

OM $Q10_1 = $71650-71653/1-9999,	OM $Q10_1 = $71654-71657/1-9999,	OM $Q10_1 = $71658-71661/1-9999,	OM $Q10_1 = $71662-71665/1-9999,	OM $Q10_1 = $71666-71669/1-9999,	OM $Q10_1 = $71670-71673/1-9999,	OM $Q10_1 = $71674-71677/1-9999,	OM $Q10_1 = $71678-71681/1-9999,	OM $Q10_1 = $71682-71685/1-9999,	OM $Q10_1 = $71686-71689/1-9999,
IF ($resp/28341456).($Q10_1/540), M $Q10_1/40,
IF ($resp/28341456).($Q10_1/540), M $Q10_1/n540,

DI $T_Q1_1 = $319-321,
DM $Q2 = $323/1-9,
DI $Q3 = $349-351,
DM $Q4 = $352/1-9,
DM $Q10 = $412/1-9,
DM $SEC19 = $173513/1-9,
DM $xSEC21 = $173475/1-9,
DM $Q10code1 = ($resp/20623004+20860788+21800759+
22631815+22631816+22631817+22631818+22636751+22640372+22640373+
22640396+22640398+22640399+22640400+22642361+22646875+22646876+
22646920+22646921+22646922+22647933+22650365+22650401+22650403+
22667607+22667608+22667609+22667610+22667611+22667612+22671581+
22674007+22674008+22674009+22675157+22675160+22676505+22676544+
22677091+22677092+22679832+22680791+22680792+22680793+22680796+
22684217+22687109+22687110+22693201+22693766+22696352+22697124+
22698443+22699807+22699808+22699809+22702218+22767565+22767610+
22767611+22779380+22779382+22779383+22779384+
24267859+24321636+
26539663+25725042+25634336)+
($Q12023/nb.$Q10/n1),


DM $TQ10 = 
($Q10/1)+($Q10code1/nb),
$Q10/2,
R,F,
XT = "Q10. NON-REJECTOR OF FINTECH",
X = "
Yes;
No;
Missing Answer<z>;
Total Count<C>",


DM $TPROFILE =
$Q3/1,
$Q3/2+3+4+5,
$Q3/6+7+8,
$Q3/9+10+11,
$Q3/12+13+14+15+16+17,

$Q4/2,
$Q4/1,

$SEC19/1,
$SEC19/2,
$SEC19/1+2,
$SEC19/3,
$SEC19/4,

$T_Q1_1/13..20,
$T_Q1_1/21..28,
$T_Q1_1/29..37,
$T_Q1_1/38..51,
$T_Q1_1/52..65,

$Q2/1,
$Q2/2,


XT = "PROFILE",
X = "
REGION\
`     Metro Manila;
`     North-Central Luzon;
`     South Luzon;
`     Visayas;
`     Mindanao;

LOCALE\
`     Rural;
`     Urban;

SEC\
`     AB;
`     C1;
`     ABC1;
`     C2;
`     D;

LIFESTAGE\
`     13-20 years old (YOUTH);
`     21-28 years old (YUPPIES);
`     29-37 years old (TRANSITONERS);
`     38-51 years old (BALANCERS);
`     52-65 years old (OLDER ADULTS);

GENDER\
`     Male;
`     Female",



DM $TPROFILE2 =
$Q3/1,
$Q3/2+3+4+5,
$Q3/6+7+8,
$Q3/9+10+11,
$Q3/12+13+14+15+16+17,

$Q4/2,
$Q4/1,

$SEC19/1,
$SEC19/2,
$SEC19/1+2,
$SEC19/3,
$SEC19/4,


$T_Q1_1/1..20,21..30,31..35,36..45,46..65,

$Q2/1,
$Q2/2,


XT = "PROFILE",
X = "
REGION\
`     Metro Manila;
`     North-Central Luzon;
`     South Luzon;
`     Visayas;
`     Mindanao;

LOCALE\
`     Rural;
`     Urban;

SEC\
`     AB;
`     C1;
`     ABC1;
`     C2;
`     D;

LIFESTAGE\
`     Students (20 yo and below);
`     Yuppies (21-30 yo);
`     Transitioners (31-35 yo);
`     Balancers (36-45 yo);
`     Older Adults/Retirees (46-65 yo);

GENDER\
`     Male;
`     Female",

